<svg width="294" height="64" viewBox="0 0 294 64" fill="none" xmlns="http://www.w3.org/2000/svg">
<g filter="url(#filter0_d_2_20)">
<path d="M13.8139 8.72727V11.9091H4.61648V8.72727H13.8139ZM6.70455 5.06818H10.9403V19.3068C10.9403 19.6979 11 20.0028 11.1193 20.2216C11.2386 20.4337 11.4044 20.5829 11.6165 20.669C11.8352 20.7552 12.0871 20.7983 12.3722 20.7983C12.571 20.7983 12.7699 20.7817 12.9688 20.7486C13.1676 20.7088 13.3201 20.679 13.4261 20.6591L14.0923 23.8111C13.8802 23.8774 13.5819 23.9536 13.1974 24.0398C12.813 24.1326 12.3456 24.1889 11.7955 24.2088C10.7746 24.2486 9.87974 24.1127 9.1108 23.8011C8.34849 23.4896 7.75521 23.0057 7.33097 22.3494C6.90672 21.6932 6.69792 20.8646 6.70455 19.8636V5.06818ZM23.3097 24.2983C21.7652 24.2983 20.4295 23.9702 19.3026 23.3139C18.1823 22.651 17.3172 21.7296 16.7074 20.5497C16.0975 19.3632 15.7926 17.9877 15.7926 16.4233C15.7926 14.8456 16.0975 13.4669 16.7074 12.2869C17.3172 11.1004 18.1823 10.179 19.3026 9.52273C20.4295 8.85985 21.7652 8.52841 23.3097 8.52841C24.8542 8.52841 26.1866 8.85985 27.3068 9.52273C28.4337 10.179 29.3021 11.1004 29.9119 12.2869C30.5218 13.4669 30.8267 14.8456 30.8267 16.4233C30.8267 17.9877 30.5218 19.3632 29.9119 20.5497C29.3021 21.7296 28.4337 22.651 27.3068 23.3139C26.1866 23.9702 24.8542 24.2983 23.3097 24.2983ZM23.3295 21.017C24.0322 21.017 24.6188 20.8182 25.0895 20.4205C25.5601 20.0161 25.9148 19.4659 26.1534 18.7699C26.3987 18.0739 26.5213 17.2817 26.5213 16.3935C26.5213 15.5052 26.3987 14.7131 26.1534 14.017C25.9148 13.321 25.5601 12.7708 25.0895 12.3665C24.6188 11.9621 24.0322 11.7599 23.3295 11.7599C22.6203 11.7599 22.0237 11.9621 21.5398 12.3665C21.0625 12.7708 20.7012 13.321 20.456 14.017C20.2173 14.7131 20.098 15.5052 20.098 16.3935C20.098 17.2817 20.2173 18.0739 20.456 18.7699C20.7012 19.4659 21.0625 20.0161 21.5398 20.4205C22.0237 20.8182 22.6203 21.017 23.3295 21.017ZM33.581 29.7273V8.72727H37.7571V11.2926H37.946C38.1316 10.8816 38.4001 10.464 38.7514 10.0398C39.1094 9.6089 39.5734 9.25095 40.1435 8.96591C40.7202 8.67424 41.4361 8.52841 42.2912 8.52841C43.4048 8.52841 44.4323 8.82008 45.3736 9.40341C46.3149 9.98011 47.0672 10.8518 47.6307 12.0185C48.1941 13.1785 48.4759 14.6335 48.4759 16.3835C48.4759 18.0871 48.2008 19.5256 47.6506 20.6989C47.107 21.8655 46.3646 22.7505 45.4233 23.3537C44.4886 23.9503 43.4413 24.2486 42.2812 24.2486C41.4593 24.2486 40.7599 24.1127 40.1832 23.8409C39.6132 23.5691 39.1458 23.2277 38.7812 22.8168C38.4167 22.3991 38.1383 21.9782 37.946 21.554H37.8168V29.7273H33.581ZM37.7273 16.3636C37.7273 17.2718 37.8532 18.0639 38.1051 18.7401C38.357 19.4162 38.7216 19.9432 39.1989 20.321C39.6761 20.6922 40.2562 20.8778 40.9389 20.8778C41.6283 20.8778 42.2116 20.6889 42.6889 20.3111C43.1662 19.9266 43.5275 19.3963 43.7727 18.7202C44.0246 18.0374 44.1506 17.2519 44.1506 16.3636C44.1506 15.482 44.0279 14.7064 43.7827 14.0369C43.5374 13.3674 43.1761 12.8437 42.6989 12.4659C42.2216 12.0881 41.6349 11.8991 40.9389 11.8991C40.2495 11.8991 39.6662 12.0814 39.1889 12.446C38.7183 12.8106 38.357 13.3277 38.1051 13.9972C37.8532 14.6667 37.7273 15.4555 37.7273 16.3636ZM58.6974 24.2784C57.2921 24.2784 56.0393 24.0199 54.9389 23.5028C53.8452 22.9858 52.9768 22.2732 52.3338 21.3651C51.6908 20.4569 51.3561 19.4162 51.3295 18.2429H55.5057C55.5521 19.0317 55.8835 19.6714 56.5 20.1619C57.1165 20.6525 57.849 20.8977 58.6974 20.8977C59.3736 20.8977 59.9702 20.7486 60.4872 20.4503C61.0109 20.1454 61.4186 19.7244 61.7102 19.1875C62.0085 18.6439 62.1577 18.0208 62.1577 17.3182C62.1577 16.6023 62.0052 15.9725 61.7003 15.429C61.402 14.8854 60.9877 14.4612 60.4574 14.1562C59.9271 13.8513 59.3205 13.6955 58.6378 13.6889C58.0412 13.6889 57.4612 13.8116 56.8977 14.0568C56.3409 14.3021 55.9067 14.6368 55.5952 15.0611L51.767 14.375L52.7315 3.63636H65.1804V7.15625H56.2812L55.7543 12.2571H55.8736C56.2315 11.7533 56.7718 11.3357 57.4943 11.0043C58.2169 10.6728 59.0256 10.5071 59.9205 10.5071C61.1468 10.5071 62.2405 10.7955 63.2017 11.3722C64.1629 11.9489 64.9219 12.741 65.4787 13.7486C66.0355 14.7495 66.3106 15.9029 66.304 17.2088C66.3106 18.581 65.9924 19.8007 65.3494 20.8679C64.7131 21.9285 63.8215 22.7637 62.6747 23.3736C61.5346 23.9768 60.2088 24.2784 58.6974 24.2784ZM69.3466 24V8.72727H73.3835V11.4219H73.5625C73.8807 10.527 74.411 9.82102 75.1534 9.30398C75.8958 8.78693 76.7841 8.52841 77.8182 8.52841C78.8655 8.52841 79.7571 8.79025 80.4929 9.31392C81.2287 9.83097 81.7192 10.5336 81.9645 11.4219H82.1236C82.4351 10.5469 82.9986 9.84754 83.8139 9.32386C84.6359 8.79356 85.607 8.52841 86.7273 8.52841C88.1525 8.52841 89.3092 8.98248 90.1974 9.89062C91.0923 10.7921 91.5398 12.0715 91.5398 13.7287V24H87.3139V14.5639C87.3139 13.7154 87.0885 13.0791 86.6378 12.6548C86.187 12.2306 85.6236 12.0185 84.9474 12.0185C84.1785 12.0185 83.5786 12.2637 83.1477 12.7543C82.7169 13.2382 82.5014 13.8778 82.5014 14.6733V24H78.3949V14.4744C78.3949 13.7254 78.1795 13.1288 77.7486 12.6847C77.3243 12.2405 76.7642 12.0185 76.0682 12.0185C75.5975 12.0185 75.1733 12.1378 74.7955 12.3764C74.4242 12.6084 74.1293 12.9366 73.9105 13.3608C73.6918 13.7784 73.5824 14.2689 73.5824 14.8324V24H69.3466ZM101.786 24.2983C100.242 24.2983 98.906 23.9702 97.7791 23.3139C96.6589 22.651 95.7938 21.7296 95.1839 20.5497C94.5741 19.3632 94.2692 17.9877 94.2692 16.4233C94.2692 14.8456 94.5741 13.4669 95.1839 12.2869C95.7938 11.1004 96.6589 10.179 97.7791 9.52273C98.906 8.85985 100.242 8.52841 101.786 8.52841C103.331 8.52841 104.663 8.85985 105.783 9.52273C106.91 10.179 107.779 11.1004 108.388 12.2869C108.998 13.4669 109.303 14.8456 109.303 16.4233C109.303 17.9877 108.998 19.3632 108.388 20.5497C107.779 21.7296 106.91 22.651 105.783 23.3139C104.663 23.9702 103.331 24.2983 101.786 24.2983ZM101.806 21.017C102.509 21.017 103.095 20.8182 103.566 20.4205C104.037 20.0161 104.391 19.4659 104.63 18.7699C104.875 18.0739 104.998 17.2817 104.998 16.3935C104.998 15.5052 104.875 14.7131 104.63 14.017C104.391 13.321 104.037 12.7708 103.566 12.3665C103.095 11.9621 102.509 11.7599 101.806 11.7599C101.097 11.7599 100.5 11.9621 100.016 12.3665C99.5391 12.7708 99.1778 13.321 98.9325 14.017C98.6939 14.7131 98.5746 15.5052 98.5746 16.3935C98.5746 17.2817 98.6939 18.0739 98.9325 18.7699C99.1778 19.4659 99.5391 20.0161 100.016 20.4205C100.5 20.8182 101.097 21.017 101.806 21.017ZM125.804 8.72727L120.464 24H115.692L110.352 8.72727H114.827L117.999 19.6548H118.158L121.32 8.72727H125.804ZM127.972 24V8.72727H132.207V24H127.972ZM130.099 6.75852C129.47 6.75852 128.929 6.54972 128.479 6.1321C128.035 5.70786 127.812 5.20076 127.812 4.61079C127.812 4.02746 128.035 3.52699 128.479 3.10938C128.929 2.68513 129.47 2.47301 130.099 2.47301C130.729 2.47301 131.266 2.68513 131.71 3.10938C132.161 3.52699 132.386 4.02746 132.386 4.61079C132.386 5.20076 132.161 5.70786 131.71 6.1321C131.266 6.54972 130.729 6.75852 130.099 6.75852ZM139.836 15.1705V24H135.6V8.72727H139.637V11.4219H139.816C140.154 10.5336 140.721 9.83097 141.517 9.31392C142.312 8.79025 143.277 8.52841 144.41 8.52841C145.471 8.52841 146.395 8.76042 147.184 9.22443C147.973 9.68845 148.586 10.3513 149.024 11.2131C149.461 12.0682 149.68 13.089 149.68 14.2756V24H145.444V15.0312C145.451 14.0966 145.212 13.3674 144.728 12.8438C144.244 12.3134 143.578 12.0483 142.73 12.0483C142.16 12.0483 141.656 12.1709 141.218 12.4162C140.788 12.6615 140.449 13.0194 140.204 13.4901C139.966 13.9541 139.843 14.5142 139.836 15.1705ZM159.899 30.0455C158.527 30.0455 157.35 29.8565 156.369 29.4787C155.395 29.1075 154.619 28.6004 154.043 27.9574C153.466 27.3144 153.091 26.5919 152.919 25.7898L156.837 25.2628C156.956 25.5677 157.145 25.8527 157.403 26.1179C157.662 26.383 158.003 26.5952 158.428 26.7543C158.858 26.92 159.382 27.0028 159.999 27.0028C160.92 27.0028 161.679 26.7775 162.276 26.3267C162.879 25.8826 163.18 25.1368 163.18 24.0895V21.2955H163.001C162.816 21.7197 162.537 22.1207 162.166 22.4986C161.795 22.8764 161.318 23.1847 160.734 23.4233C160.151 23.6619 159.455 23.7812 158.646 23.7812C157.5 23.7812 156.455 23.5161 155.514 22.9858C154.58 22.4489 153.834 21.6302 153.277 20.5298C152.727 19.4228 152.452 18.0241 152.452 16.3338C152.452 14.6037 152.733 13.1586 153.297 11.9986C153.86 10.8385 154.609 9.97017 155.544 9.39347C156.485 8.81676 157.516 8.52841 158.636 8.52841C159.491 8.52841 160.207 8.67424 160.784 8.96591C161.361 9.25095 161.825 9.6089 162.176 10.0398C162.534 10.464 162.809 10.8816 163.001 11.2926H163.161V8.72727H167.366V24.1491C167.366 25.4484 167.048 26.5355 166.412 27.4105C165.776 28.2855 164.894 28.9418 163.767 29.3793C162.647 29.8234 161.357 30.0455 159.899 30.0455ZM159.989 20.5994C160.671 20.5994 161.248 20.4304 161.719 20.0923C162.196 19.7476 162.561 19.2571 162.812 18.6207C163.071 17.9777 163.2 17.2088 163.2 16.3139C163.2 15.419 163.074 14.6435 162.822 13.9872C162.571 13.3243 162.206 12.8106 161.729 12.446C161.251 12.0814 160.671 11.8991 159.989 11.8991C159.293 11.8991 158.706 12.0881 158.229 12.4659C157.751 12.8371 157.39 13.3542 157.145 14.017C156.9 14.6799 156.777 15.4455 156.777 16.3139C156.777 17.1955 156.9 17.9579 157.145 18.6009C157.397 19.2372 157.758 19.7311 158.229 20.0824C158.706 20.4271 159.293 20.5994 159.989 20.5994ZM173.213 24.2585C172.557 24.2585 171.993 24.0265 171.523 23.5625C171.059 23.0919 170.827 22.5284 170.827 21.8722C170.827 21.2225 171.059 20.6657 171.523 20.2017C171.993 19.7377 172.557 19.5057 173.213 19.5057C173.849 19.5057 174.406 19.7377 174.884 20.2017C175.361 20.6657 175.599 21.2225 175.599 21.8722C175.599 22.3097 175.487 22.7107 175.261 23.0753C175.043 23.4332 174.754 23.7216 174.396 23.9403C174.038 24.1525 173.644 24.2585 173.213 24.2585ZM185.978 24.2983C184.413 24.2983 183.068 23.9669 181.941 23.304C180.82 22.6345 179.959 21.7064 179.355 20.5199C178.759 19.3333 178.461 17.9678 178.461 16.4233C178.461 14.8589 178.762 13.4867 179.365 12.3068C179.975 11.1203 180.84 10.1955 181.961 9.53267C183.081 8.86316 184.413 8.52841 185.958 8.52841C187.29 8.52841 188.457 8.77036 189.458 9.25426C190.459 9.73816 191.251 10.4176 191.834 11.2926C192.417 12.1676 192.739 13.1951 192.799 14.375H188.801C188.689 13.6127 188.391 12.9995 187.907 12.5355C187.429 12.0649 186.803 11.8295 186.027 11.8295C185.371 11.8295 184.798 12.0085 184.307 12.3665C183.823 12.7178 183.445 13.2315 183.174 13.9077C182.902 14.5838 182.766 15.4025 182.766 16.3636C182.766 17.3381 182.899 18.1667 183.164 18.8494C183.435 19.5322 183.817 20.0526 184.307 20.4105C184.798 20.7685 185.371 20.9474 186.027 20.9474C186.511 20.9474 186.945 20.848 187.33 20.6491C187.721 20.4503 188.042 20.1619 188.294 19.7841C188.553 19.3996 188.722 18.9389 188.801 18.402H192.799C192.732 19.5687 192.414 20.5961 191.844 21.4844C191.281 22.366 190.502 23.0554 189.507 23.5526C188.513 24.0497 187.337 24.2983 185.978 24.2983ZM202.411 24.2983C200.867 24.2983 199.531 23.9702 198.404 23.3139C197.284 22.651 196.419 21.7296 195.809 20.5497C195.199 19.3632 194.894 17.9877 194.894 16.4233C194.894 14.8456 195.199 13.4669 195.809 12.2869C196.419 11.1004 197.284 10.179 198.404 9.52273C199.531 8.85985 200.867 8.52841 202.411 8.52841C203.956 8.52841 205.288 8.85985 206.408 9.52273C207.535 10.179 208.404 11.1004 209.013 12.2869C209.623 13.4669 209.928 14.8456 209.928 16.4233C209.928 17.9877 209.623 19.3632 209.013 20.5497C208.404 21.7296 207.535 22.651 206.408 23.3139C205.288 23.9702 203.956 24.2983 202.411 24.2983ZM202.431 21.017C203.134 21.017 203.72 20.8182 204.191 20.4205C204.662 20.0161 205.016 19.4659 205.255 18.7699C205.5 18.0739 205.623 17.2817 205.623 16.3935C205.623 15.5052 205.5 14.7131 205.255 14.017C205.016 13.321 204.662 12.7708 204.191 12.3665C203.72 11.9621 203.134 11.7599 202.431 11.7599C201.722 11.7599 201.125 11.9621 200.641 12.3665C200.164 12.7708 199.803 13.321 199.558 14.017C199.319 14.7131 199.2 15.5052 199.2 16.3935C199.2 17.2817 199.319 18.0739 199.558 18.7699C199.803 19.4659 200.164 20.0161 200.641 20.4205C201.125 20.8182 201.722 21.017 202.431 21.017ZM212.683 24V8.72727H216.719V11.4219H216.898C217.217 10.527 217.747 9.82102 218.489 9.30398C219.232 8.78693 220.12 8.52841 221.154 8.52841C222.201 8.52841 223.093 8.79025 223.829 9.31392C224.565 9.83097 225.055 10.5336 225.3 11.4219H225.46C225.771 10.5469 226.335 9.84754 227.15 9.32386C227.972 8.79356 228.943 8.52841 230.063 8.52841C231.488 8.52841 232.645 8.98248 233.533 9.89062C234.428 10.7921 234.876 12.0715 234.876 13.7287V24H230.65V14.5639C230.65 13.7154 230.424 13.0791 229.974 12.6548C229.523 12.2306 228.96 12.0185 228.283 12.0185C227.514 12.0185 226.915 12.2637 226.484 12.7543C226.053 13.2382 225.837 13.8778 225.837 14.6733V24H221.731V14.4744C221.731 13.7254 221.515 13.1288 221.085 12.6847C220.66 12.2405 220.1 12.0185 219.404 12.0185C218.933 12.0185 218.509 12.1378 218.131 12.3764C217.76 12.6084 217.465 12.9366 217.246 13.3608C217.028 13.7784 216.918 14.2689 216.918 14.8324V24H212.683Z" fill="white"/>
<path d="M4 29.5682H236.526V31.4773H4V29.5682Z" fill="white"/>
</g>
<g filter="url(#filter1_d_2_20)">
<path d="M13.8139 8.72727V11.9091H4.61648V8.72727H13.8139ZM6.70455 5.06818H10.9403V19.3068C10.9403 19.6979 11 20.0028 11.1193 20.2216C11.2386 20.4337 11.4044 20.5829 11.6165 20.669C11.8352 20.7552 12.0871 20.7983 12.3722 20.7983C12.571 20.7983 12.7699 20.7817 12.9688 20.7486C13.1676 20.7088 13.3201 20.679 13.4261 20.6591L14.0923 23.8111C13.8802 23.8774 13.5819 23.9536 13.1974 24.0398C12.813 24.1326 12.3456 24.1889 11.7955 24.2088C10.7746 24.2486 9.87974 24.1127 9.1108 23.8011C8.34849 23.4896 7.75521 23.0057 7.33097 22.3494C6.90672 21.6932 6.69792 20.8646 6.70455 19.8636V5.06818ZM23.3097 24.2983C21.7652 24.2983 20.4295 23.9702 19.3026 23.3139C18.1823 22.651 17.3172 21.7296 16.7074 20.5497C16.0975 19.3632 15.7926 17.9877 15.7926 16.4233C15.7926 14.8456 16.0975 13.4669 16.7074 12.2869C17.3172 11.1004 18.1823 10.179 19.3026 9.52273C20.4295 8.85985 21.7652 8.52841 23.3097 8.52841C24.8542 8.52841 26.1866 8.85985 27.3068 9.52273C28.4337 10.179 29.3021 11.1004 29.9119 12.2869C30.5218 13.4669 30.8267 14.8456 30.8267 16.4233C30.8267 17.9877 30.5218 19.3632 29.9119 20.5497C29.3021 21.7296 28.4337 22.651 27.3068 23.3139C26.1866 23.9702 24.8542 24.2983 23.3097 24.2983ZM23.3295 21.017C24.0322 21.017 24.6188 20.8182 25.0895 20.4205C25.5601 20.0161 25.9148 19.4659 26.1534 18.7699C26.3987 18.0739 26.5213 17.2817 26.5213 16.3935C26.5213 15.5052 26.3987 14.7131 26.1534 14.017C25.9148 13.321 25.5601 12.7708 25.0895 12.3665C24.6188 11.9621 24.0322 11.7599 23.3295 11.7599C22.6203 11.7599 22.0237 11.9621 21.5398 12.3665C21.0625 12.7708 20.7012 13.321 20.456 14.017C20.2173 14.7131 20.098 15.5052 20.098 16.3935C20.098 17.2817 20.2173 18.0739 20.456 18.7699C20.7012 19.4659 21.0625 20.0161 21.5398 20.4205C22.0237 20.8182 22.6203 21.017 23.3295 21.017ZM33.581 29.7273V8.72727H37.7571V11.2926H37.946C38.1316 10.8816 38.4001 10.464 38.7514 10.0398C39.1094 9.6089 39.5734 9.25095 40.1435 8.96591C40.7202 8.67424 41.4361 8.52841 42.2912 8.52841C43.4048 8.52841 44.4323 8.82008 45.3736 9.40341C46.3149 9.98011 47.0672 10.8518 47.6307 12.0185C48.1941 13.1785 48.4759 14.6335 48.4759 16.3835C48.4759 18.0871 48.2008 19.5256 47.6506 20.6989C47.107 21.8655 46.3646 22.7505 45.4233 23.3537C44.4886 23.9503 43.4413 24.2486 42.2812 24.2486C41.4593 24.2486 40.7599 24.1127 40.1832 23.8409C39.6132 23.5691 39.1458 23.2277 38.7812 22.8168C38.4167 22.3991 38.1383 21.9782 37.946 21.554H37.8168V29.7273H33.581ZM37.7273 16.3636C37.7273 17.2718 37.8532 18.0639 38.1051 18.7401C38.357 19.4162 38.7216 19.9432 39.1989 20.321C39.6761 20.6922 40.2562 20.8778 40.9389 20.8778C41.6283 20.8778 42.2116 20.6889 42.6889 20.3111C43.1662 19.9266 43.5275 19.3963 43.7727 18.7202C44.0246 18.0374 44.1506 17.2519 44.1506 16.3636C44.1506 15.482 44.0279 14.7064 43.7827 14.0369C43.5374 13.3674 43.1761 12.8437 42.6989 12.4659C42.2216 12.0881 41.6349 11.8991 40.9389 11.8991C40.2495 11.8991 39.6662 12.0814 39.1889 12.446C38.7183 12.8106 38.357 13.3277 38.1051 13.9972C37.8532 14.6667 37.7273 15.4555 37.7273 16.3636ZM58.6974 24.2784C57.2921 24.2784 56.0393 24.0199 54.9389 23.5028C53.8452 22.9858 52.9768 22.2732 52.3338 21.3651C51.6908 20.4569 51.3561 19.4162 51.3295 18.2429H55.5057C55.5521 19.0317 55.8835 19.6714 56.5 20.1619C57.1165 20.6525 57.849 20.8977 58.6974 20.8977C59.3736 20.8977 59.9702 20.7486 60.4872 20.4503C61.0109 20.1454 61.4186 19.7244 61.7102 19.1875C62.0085 18.6439 62.1577 18.0208 62.1577 17.3182C62.1577 16.6023 62.0052 15.9725 61.7003 15.429C61.402 14.8854 60.9877 14.4612 60.4574 14.1562C59.9271 13.8513 59.3205 13.6955 58.6378 13.6889C58.0412 13.6889 57.4612 13.8116 56.8977 14.0568C56.3409 14.3021 55.9067 14.6368 55.5952 15.0611L51.767 14.375L52.7315 3.63636H65.1804V7.15625H56.2812L55.7543 12.2571H55.8736C56.2315 11.7533 56.7718 11.3357 57.4943 11.0043C58.2169 10.6728 59.0256 10.5071 59.9205 10.5071C61.1468 10.5071 62.2405 10.7955 63.2017 11.3722C64.1629 11.9489 64.9219 12.741 65.4787 13.7486C66.0355 14.7495 66.3106 15.9029 66.304 17.2088C66.3106 18.581 65.9924 19.8007 65.3494 20.8679C64.7131 21.9285 63.8215 22.7637 62.6747 23.3736C61.5346 23.9768 60.2088 24.2784 58.6974 24.2784Z" fill="#FF0000"/>
<path d="M4 29.5682H67.6562V31.4773H4V29.5682Z" fill="#FF0000"/>
</g>
<defs>
<filter id="filter0_d_2_20" x="0.616486" y="2.47302" width="238.259" height="35.5724" filterUnits="userSpaceOnUse" color-interpolation-filters="sRGB">
<feFlood flood-opacity="0" result="BackgroundImageFix"/>
<feColorMatrix in="SourceAlpha" type="matrix" values="0 0 0 0 0 0 0 0 0 0 0 0 0 0 0 0 0 0 127 0" result="hardAlpha"/>
<feOffset dy="4"/>
<feGaussianBlur stdDeviation="2"/>
<feComposite in2="hardAlpha" operator="out"/>
<feColorMatrix type="matrix" values="0 0 0 0 0 0 0 0 0 0 0 0 0 0 0 0 0 0 0.25 0"/>
<feBlend mode="normal" in2="BackgroundImageFix" result="effect1_dropShadow_2_20"/>
<feBlend mode="normal" in="SourceGraphic" in2="effect1_dropShadow_2_20" result="shape"/>
</filter>
<filter id="filter1_d_2_20" x="0.616486" y="3.63635" width="69.6974" height="34.0909" filterUnits="userSpaceOnUse" color-interpolation-filters="sRGB">
<feFlood flood-opacity="0" result="BackgroundImageFix"/>
<feColorMatrix in="SourceAlpha" type="matrix" values="0 0 0 0 0 0 0 0 0 0 0 0 0 0 0 0 0 0 127 0" result="hardAlpha"/>
<feOffset dy="4"/>
<feGaussianBlur stdDeviation="2"/>
<feComposite in2="hardAlpha" operator="out"/>
<feColorMatrix type="matrix" values="0 0 0 0 0 0 0 0 0 0 0 0 0 0 0 0 0 0 0.25 0"/>
<feBlend mode="normal" in2="BackgroundImageFix" result="effect1_dropShadow_2_20"/>
<feBlend mode="normal" in="SourceGraphic" in2="effect1_dropShadow_2_20" result="shape"/>
</filter>
</defs>
</svg>
